# xmcd
#
# Track frame offsets:
#	150
#	17743
#	37306
#	53310
#	70060
#	87356
#	105125
#	119584
#	133117
#	148356
#	161724
#	179828
#	196358
#	211766
#	226909
#	245430
#	258242
#
# Disc length: 3655
#
# Revision: 2
# Processed by: cddbd v1.5.1PL0 Copyright (c) Steve Scherf et al.
# Submitted via: VisiTrax 2.9.5.180 - For more info visit www.synapsa.com
# Normalized: r1:DSETVAR1
#
DISCID=f30e4511
DTITLE=Various Artist - CDX 319 June 2003
DYEAR=1900
DGENRE=
TTITLE0=Buddy Jewell - Help Pour Out The Rain (Lacey's Song)
TTITLE1=Rodney Atkins - Honestly (Write Me A List)
TTITLE2=Jeff Carson - I Can Only Imagine
TTITLE3=Darryl Worley - I Need A Breather
TTITLE4=Rick Trevino - In My Dreams (Single Version)
TTITLE5=Rosanne Cash - Rules Of Travel
TTITLE6=Dwight Yoakam - The Back Of Your Hand
TTITLE7=Scotty Emerick - The Coast Is Clear
TTITLE8=Colt Prather - The Dash
TTITLE9=Dean Miller - The Gun Ain't Loaded
TTITLE10=Gary Allan - Tough Little Boys
TTITLE11=Wynonna - What The World Needs
TTITLE12=Kirk Dillen - A Reason To Change
TTITLE13=Anthony Michael James - First One To Leave
TTITLE14=Craig Collins - It's All In Your Head
TTITLE15=Jill Markey - NASCAR Fan
TTITLE16=Eric Horner - She Is A Hero (And A Woman Too)
EXTD=
EXTT0=
EXTT1=
EXTT2=
EXTT3=
EXTT4=
EXTT5=
EXTT6=
EXTT7=
EXTT8=
EXTT9=
EXTT10=
EXTT11=
EXTT12=
EXTT13=
EXTT14=
EXTT15=
EXTT16=
PLAYORDER=
